<svg xmlns="http://www.w3.org/2000/svg" direction="ltr" width="265.19257809044234" height="336.9512427626264" viewBox="1551.5670432756424 3509.6393318768414 265.19257809044234 336.9512427626264" stroke-linecap="round" stroke-linejoin="round" style="background-color: transparent;" encoding="UTF-8&quot;"><defs/><g transform="matrix(1, 0, 0, 1, 1685.0576, 3658.6047)" opacity="1"><path stroke-width="10px" stroke="#599f57" fill="none" d="M0, 0L0, 155.99"/></g><g transform="matrix(1, 0, 0, 1, 1784.5962, 3601.1038)" opacity="1"><path stroke-width="10px" stroke="#599f57" fill="none" d="M0, 0L0, 155.99"/></g><g transform="matrix(1, 0, 0, 1, 1584.8045, 3600.6004)" opacity="1"><path stroke-width="10px" stroke="#599f57" fill="none" d="M0, 0L0, 155.99"/></g><g transform="matrix(1, 0, 0, 1, 1585.616, 3743.7126)" opacity="1"><path stroke-width="10px" stroke="#599f57" fill="none" d="M0, 0L97.77, 56.87"/></g><g transform="matrix(1, 0, 0, 1, 1784.1253, 3757.9159)" opacity="1"><path stroke-width="10px" stroke="#599f57" fill="none" d="M0, 0L-98.08, 56.63"/></g><g transform="matrix(1, 0, 0, 1, 1784.2714, 3600.5435)" opacity="1"><path stroke-width="10px" stroke="#599f57" fill="none" d="M0, 0L-98.86, 57.08"/></g><g transform="matrix(1, 0, 0, 1, 1583.567, 3598.8466)" opacity="1"><path stroke-width="10px" stroke="#599f57" fill="none" d="M0, 0L99.47, 57.43"/></g><g transform="matrix(1, 0, 0, 1, 1585.7788, 3597.4988)" opacity="1"><path stroke-width="10px" stroke="#599f57" fill="none" d="M0, 0L99.14, -55.86"/></g><g transform="matrix(1, 0, 0, 1, 1782.5258, 3598.0022)" opacity="1"><path stroke-width="10px" stroke="#599f57" fill="none" d="M2.23, 1.71L-97.1, -56.09"/></g><g transform="matrix(1, 0, 0, 1, 1585.3653, 3614.4197)" opacity="1"><path stroke-width="10px" stroke="#599f57" fill="none" d="M0, 0L99.47, 57.43"/></g><g transform="matrix(1, 0, 0, 1, 1585.3682, 3729.8584)" opacity="1"><path stroke-width="10px" stroke="#599f57" fill="none" d="M0, 0L99.47, 57.43"/></g><g transform="matrix(1, 0, 0, 1, 1585.0092, 3658.61)" opacity="1"><path stroke-width="10px" stroke="#599f57" fill="none" d="M0, 0L99.47, 57.43"/></g><g transform="matrix(1, 0, 0, 1, 1584.7658, 3643.5859)" opacity="1"><path stroke-width="10px" stroke="#599f57" fill="none" d="M0, 0L99.47, 57.43"/></g><g transform="matrix(1, 0, 0, 1, 1584.7688, 3628.9928)" opacity="1"><path stroke-width="10px" stroke="#599f57" fill="none" d="M0, 0L99.47, 57.43"/></g><g transform="matrix(1, 0, 0, 1, 1585.1694, 3672.5659)" opacity="1"><path stroke-width="10px" stroke="#599f57" fill="none" d="M0, 0L99.47, 57.43"/></g><g transform="matrix(1, 0, 0, 1, 1585.5641, 3687.1391)" opacity="1"><path stroke-width="10px" stroke="#599f57" fill="none" d="M0, 0L99.47, 57.43"/></g><g transform="matrix(1, 0, 0, 1, 1584.9676, 3700.7122)" opacity="1"><path stroke-width="10px" stroke="#599f57" fill="none" d="M0, 0L99.47, 57.43"/></g><g transform="matrix(1, 0, 0, 1, 1584.9647, 3715.2853)" opacity="1"><path stroke-width="10px" stroke="#599f57" fill="none" d="M0, 0L99.47, 57.43"/></g><g transform="matrix(1, 0, 0, 1, 1584.1664, 3757.0047)" opacity="1"><path stroke-width="10px" stroke="#599f57" fill="none" d="M0, 0L99.47, 57.43"/></g></svg>