<svg xmlns="http://www.w3.org/2000/svg" direction="ltr" width="263.5328112497609" height="338.47573376550554" viewBox="4149.249700464285 2688.181680474434 263.5328112497609 338.47573376550554" stroke-linecap="round" stroke-linejoin="round" style="background-color: transparent;" encoding="UTF-8&quot;"><defs/><g transform="matrix(1, 0, 0, 1, 4181.3715, 2781.2195)" opacity="1"><path stroke-width="10px" stroke="#aa3c37" fill="none" d="M0, 0L0, 155.99"/></g><g transform="matrix(1, 0, 0, 1, 4278.3523, 2992.9477)" opacity="1"><path stroke-width="10px" stroke="#aa3c37" fill="none" d="M2.23, 1.71L-97.1, -56.09"/></g><g transform="matrix(1, 0, 0, 1, 4281.0805, 2837.147)" opacity="1"><path stroke-width="10px" stroke="#aa3c37" fill="none" d="M0, 0L0, 155.99"/></g><g transform="matrix(1, 0, 0, 1, 4380.6191, 2779.6461)" opacity="1"><path stroke-width="10px" stroke="#aa3c37" fill="none" d="M0, 0L0, 155.99"/></g><g transform="matrix(1, 0, 0, 1, 4182.1386, 2936.1092)" opacity="1"><path stroke-width="10px" stroke="#aa3c37" fill="none" d="M0, 0L97.77, 56.87"/></g><g transform="matrix(1, 0, 0, 1, 4380.1482, 2936.4583)" opacity="1"><path stroke-width="10px" stroke="#aa3c37" fill="none" d="M0, 0L-98.08, 56.63"/></g><g transform="matrix(1, 0, 0, 1, 4380.2943, 2779.0859)" opacity="1"><path stroke-width="10px" stroke="#aa3c37" fill="none" d="M0, 0L-98.86, 57.08"/></g><g transform="matrix(1, 0, 0, 1, 4180.7705, 2777.3889)" opacity="1"><path stroke-width="10px" stroke="#aa3c37" fill="none" d="M3.24, 1.66L99.47, 57.43"/></g><g transform="matrix(1, 0, 0, 1, 4181.8017, 2776.0411)" opacity="1"><path stroke-width="10px" stroke="#aa3c37" fill="none" d="M0.91, 0.26L99.14, -55.86"/></g><g transform="matrix(1, 0, 0, 1, 4378.5487, 2776.5445)" opacity="1"><path stroke-width="10px" stroke="#aa3c37" fill="none" d="M2.23, 1.71L-97.1, -56.09"/></g><g transform="matrix(1, 0, 0, 1, 4182.6744, 2793.5381)" opacity="1"><path stroke-width="10px" stroke="#aa3c37" fill="none" d="M0, 0L99.47, 57.43"/></g><g transform="matrix(1, 0, 0, 1, 4181.9837, 2822.0022)" opacity="1"><path stroke-width="10px" stroke="#aa3c37" fill="none" d="M0, 0L99.47, 57.43"/></g><g transform="matrix(1, 0, 0, 1, 4181.8291, 2807.3056)" opacity="1"><path stroke-width="10px" stroke="#aa3c37" fill="none" d="M0, 0L99.47, 57.43"/></g><g transform="matrix(1, 0, 0, 1, 4182.1383, 2836.7697)" opacity="1"><path stroke-width="10px" stroke="#aa3c37" fill="none" d="M0, 0L99.47, 57.43"/></g><g transform="matrix(1, 0, 0, 1, 4182.0989, 2851.1574)" opacity="1"><path stroke-width="10px" stroke="#aa3c37" fill="none" d="M0, 0L99.47, 57.43"/></g><g transform="matrix(1, 0, 0, 1, 4181.4081, 2879.6215)" opacity="1"><path stroke-width="10px" stroke="#aa3c37" fill="none" d="M0, 0L99.47, 57.43"/></g><g transform="matrix(1, 0, 0, 1, 4181.2535, 2864.9249)" opacity="1"><path stroke-width="10px" stroke="#aa3c37" fill="none" d="M0, 0L99.47, 57.43"/></g><g transform="matrix(1, 0, 0, 1, 4181.5627, 2894.389)" opacity="1"><path stroke-width="10px" stroke="#aa3c37" fill="none" d="M0, 0L99.47, 57.43"/></g><g transform="matrix(1, 0, 0, 1, 4181.3666, 2909.1016)" opacity="1"><path stroke-width="10px" stroke="#aa3c37" fill="none" d="M0, 0L99.47, 57.43"/></g><g transform="matrix(1, 0, 0, 1, 4181.5212, 2922.8691)" opacity="1"><path stroke-width="10px" stroke="#aa3c37" fill="none" d="M0, 0L99.47, 57.43"/></g></svg>