<svg xmlns="http://www.w3.org/2000/svg" direction="ltr" width="463.03709933149867" height="874.8350655710128" viewBox="2564.589143642622 4069.7369712579275 463.03709933149867 874.8350655710128" stroke-linecap="round" stroke-linejoin="round" style="background-color: transparent;" encoding="UTF-8&quot;"><defs/><g transform="matrix(1, 0, 0, 1, 2894.8452, 4755.7348)" opacity="1"><path stroke-width="3.5px" stroke="#93989f" fill="none" d="M0, 0L0, 155.99"/></g><g transform="matrix(1, 0, 0, 1, 2994.3838, 4698.2339)" opacity="1"><path stroke-width="3.5px" stroke="#93989f" fill="none" d="M0, 0L0, 155.99"/></g><g transform="matrix(1, 0, 0, 1, 2795.9033, 4854.6969)" opacity="1"><path stroke-width="3.5px" stroke="#93989f" fill="none" d="M0, 0L97.77, 56.87"/></g><g transform="matrix(1, 0, 0, 1, 2993.9129, 4855.0461)" opacity="1"><path stroke-width="3.5px" stroke="#93989f" fill="none" d="M0, 0L-98.08, 56.63"/></g><g transform="matrix(1, 0, 0, 1, 2994.059, 4697.6736)" opacity="1"><path stroke-width="3.5px" stroke="#93989f" fill="none" d="M0, 0L-98.86, 57.08"/></g><g transform="matrix(1, 0, 0, 1, 2992.3134, 4695.1323)" opacity="1"><path stroke-width="3.5px" stroke="#93989f" fill="none" d="M2.23, 1.71L-97.1, -56.09"/></g><g transform="matrix(1, 0, 0, 1, 2895.2664, 4595.4061)" opacity="1"><path stroke-width="3.5px" stroke="#93989f" fill="none" d="M0, 0L0, 155.99"/></g><g transform="matrix(1, 0, 0, 1, 2696.786, 4751.8692)" opacity="1"><path stroke-width="3.5px" stroke="#93989f" fill="none" d="M0, 0L97.77, 56.87"/></g><g transform="matrix(1, 0, 0, 1, 2894.7955, 4752.2183)" opacity="1"><path stroke-width="3.5px" stroke="#93989f" fill="none" d="M0, 0L-98.08, 56.63"/></g><g transform="matrix(1, 0, 0, 1, 2894.9416, 4594.8459)" opacity="1"><path stroke-width="3.5px" stroke="#93989f" fill="none" d="M0, 0L-98.86, 57.08"/></g><g transform="matrix(1, 0, 0, 1, 2695.4179, 4593.149)" opacity="1"><path stroke-width="3.5px" stroke="#93989f" fill="none" d="M1.55, 0.78L99.47, 57.43"/></g><g transform="matrix(1, 0, 0, 1, 2696.449, 4591.8012)" opacity="1"><path stroke-width="3.5px" stroke="#93989f" fill="none" d="M0.46, -0.63L99.14, -55.86"/></g><g transform="matrix(1, 0, 0, 1, 2893.196, 4592.3046)" opacity="1"><path stroke-width="3.5px" stroke="#93989f" fill="none" d="M2.23, 1.71L-97.1, -56.09"/></g><g transform="matrix(1, 0, 0, 1, 2895.9242, 4436.5039)" opacity="1"><path stroke-width="3.5px" stroke="#93989f" fill="none" d="M0, 0L0, 155.99"/></g><g transform="matrix(1, 0, 0, 1, 2995.4628, 4379.0029)" opacity="1"><path stroke-width="3.5px" stroke="#93989f" fill="none" d="M0, 0L0, 155.99"/></g><g transform="matrix(1, 0, 0, 1, 2796.9824, 4535.466)" opacity="1"><path stroke-width="3.5px" stroke="#93989f" fill="none" d="M0, 0L97.77, 56.87"/></g><g transform="matrix(1, 0, 0, 1, 2994.9919, 4535.8151)" opacity="1"><path stroke-width="3.5px" stroke="#93989f" fill="none" d="M0, 0L-98.08, 56.63"/></g><g transform="matrix(1, 0, 0, 1, 2995.1381, 4378.4427)" opacity="1"><path stroke-width="3.5px" stroke="#93989f" fill="none" d="M0, 0L-98.86, 57.08"/></g><g transform="matrix(1, 0, 0, 1, 2795.6143, 4376.7458)" opacity="1"><path stroke-width="3.5px" stroke="#93989f" fill="none" d="M3.24, 1.66L99.47, 57.43"/></g><g transform="matrix(1, 0, 0, 1, 2796.6454, 4375.398)" opacity="1"><path stroke-width="3.5px" stroke="#93989f" fill="none" d="M0.91, 0.26L99.14, -55.86"/></g><g transform="matrix(1, 0, 0, 1, 2993.3924, 4375.9014)" opacity="1"><path stroke-width="3.5px" stroke="#93989f" fill="none" d="M2.23, 1.71L-97.1, -56.09"/></g><g transform="matrix(1, 0, 0, 1, 2696.8991, 4218.7023)" opacity="1"><path stroke-width="3.5px" stroke="#93989f" fill="none" d="M0, 0L0, 693.3"/></g><g transform="matrix(1, 0, 0, 1, 2596.646, 4160.698)" opacity="1"><path stroke-width="3.5px" stroke="#93989f" fill="none" d="M0, 0L0, 692.9"/></g><g transform="matrix(1, 0, 0, 1, 2597.2741, 4855.5938)" opacity="1"><path stroke-width="3.5px" stroke="#93989f" fill="none" d="M0, 0L97.77, 56.87"/></g><g transform="matrix(1, 0, 0, 1, 2795.2836, 4855.943)" opacity="1"><path stroke-width="3.5px" stroke="#93989f" fill="none" d="M0, 0L-98.08, 56.63"/></g><g transform="matrix(1, 0, 0, 1, 2796.1129, 4160.6412)" opacity="1"><path stroke-width="3.5px" stroke="#93989f" fill="none" d="M0, 0L-98.86, 57.08"/></g><g transform="matrix(1, 0, 0, 1, 2596.5891, 4158.9442)" opacity="1"><path stroke-width="3.5px" stroke="#93989f" fill="none" d="M0, 0L99.47, 57.43"/></g><g transform="matrix(1, 0, 0, 1, 2597.6203, 4157.5964)" opacity="1"><path stroke-width="3.5px" stroke="#93989f" fill="none" d="M0, 0L99.14, -55.86"/></g><g transform="matrix(1, 0, 0, 1, 2794.3673, 4158.0998)" opacity="1"><path stroke-width="3.5px" stroke="#93989f" fill="none" d="M2.23, 1.71L-97.1, -56.09"/></g><g transform="matrix(1, 0, 0, 1, 2796.7871, 4160.7432)" opacity="1"><path stroke-width="3.5px" stroke="#93989f" fill="none" d="M0, 0L0, 373.58"/></g><g transform="matrix(1, 0, 0, 1, 2795.1154, 4653.0918)" opacity="1"><path stroke-width="3.5px" stroke="#93989f" fill="none" d="M0, 0L0, 203.02"/></g></svg>