<svg xmlns="http://www.w3.org/2000/svg" direction="ltr" width="463.1557986785542" height="875.8350655710124" viewBox="2217.595006360645 3226.552019504301 463.1557986785542 875.8350655710124" stroke-linecap="round" stroke-linejoin="round" style="background-color: transparent;" encoding="UTF-8&quot;"><defs/><g transform="matrix(1, 0, 0, 1, 2547.9697, 3913.5498)" opacity="1"><path stroke-width="10px" stroke="#599f57" fill="none" d="M0, 0L0, 155.99"/></g><g transform="matrix(1, 0, 0, 1, 2647.5083, 3856.0489)" opacity="1"><path stroke-width="10px" stroke="#599f57" fill="none" d="M0, 0L0, 155.99"/></g><g transform="matrix(1, 0, 0, 1, 2449.0279, 4012.512)" opacity="1"><path stroke-width="10px" stroke="#599f57" fill="none" d="M0, 0L97.77, 56.87"/></g><g transform="matrix(1, 0, 0, 1, 2647.0374, 4012.8611)" opacity="1"><path stroke-width="10px" stroke="#599f57" fill="none" d="M0, 0L-98.08, 56.63"/></g><g transform="matrix(1, 0, 0, 1, 2647.1836, 3855.4887)" opacity="1"><path stroke-width="10px" stroke="#599f57" fill="none" d="M0, 0L-98.86, 57.08"/></g><g transform="matrix(1, 0, 0, 1, 2645.4379, 3852.9474)" opacity="1"><path stroke-width="10px" stroke="#599f57" fill="none" d="M2.23, 1.71L-97.1, -56.09"/></g><g transform="matrix(1, 0, 0, 1, 2548.391, 3753.2212)" opacity="1"><path stroke-width="10px" stroke="#599f57" fill="none" d="M0, 0L0, 155.99"/></g><g transform="matrix(1, 0, 0, 1, 2349.9105, 3909.6842)" opacity="1"><path stroke-width="10px" stroke="#599f57" fill="none" d="M0, 0L97.77, 56.87"/></g><g transform="matrix(1, 0, 0, 1, 2547.9201, 3910.0334)" opacity="1"><path stroke-width="10px" stroke="#599f57" fill="none" d="M0, 0L-98.08, 56.63"/></g><g transform="matrix(1, 0, 0, 1, 2548.0662, 3752.661)" opacity="1"><path stroke-width="10px" stroke="#599f57" fill="none" d="M0, 0L-98.86, 57.08"/></g><g transform="matrix(1, 0, 0, 1, 2348.5424, 3750.964)" opacity="1"><path stroke-width="10px" stroke="#599f57" fill="none" d="M1.55, 0.78L99.47, 57.43"/></g><g transform="matrix(1, 0, 0, 1, 2349.5736, 3749.6162)" opacity="1"><path stroke-width="10px" stroke="#599f57" fill="none" d="M0.46, -0.63L99.14, -55.86"/></g><g transform="matrix(1, 0, 0, 1, 2546.3206, 3750.1196)" opacity="1"><path stroke-width="10px" stroke="#599f57" fill="none" d="M2.23, 1.71L-97.1, -56.09"/></g><g transform="matrix(1, 0, 0, 1, 2549.0488, 3594.3189)" opacity="1"><path stroke-width="10px" stroke="#599f57" fill="none" d="M0, 0L0, 155.99"/></g><g transform="matrix(1, 0, 0, 1, 2648.5874, 3536.818)" opacity="1"><path stroke-width="10px" stroke="#599f57" fill="none" d="M0, 0L0, 155.99"/></g><g transform="matrix(1, 0, 0, 1, 2450.1069, 3693.281)" opacity="1"><path stroke-width="10px" stroke="#599f57" fill="none" d="M0, 0L97.77, 56.87"/></g><g transform="matrix(1, 0, 0, 1, 2648.1165, 3693.6302)" opacity="1"><path stroke-width="10px" stroke="#599f57" fill="none" d="M0, 0L-98.08, 56.63"/></g><g transform="matrix(1, 0, 0, 1, 2648.2626, 3536.2578)" opacity="1"><path stroke-width="10px" stroke="#599f57" fill="none" d="M0, 0L-98.86, 57.08"/></g><g transform="matrix(1, 0, 0, 1, 2448.7388, 3534.5608)" opacity="1"><path stroke-width="10px" stroke="#599f57" fill="none" d="M3.24, 1.66L99.47, 57.43"/></g><g transform="matrix(1, 0, 0, 1, 2449.77, 3533.213)" opacity="1"><path stroke-width="10px" stroke="#599f57" fill="none" d="M0.91, 0.26L99.14, -55.86"/></g><g transform="matrix(1, 0, 0, 1, 2646.517, 3533.7164)" opacity="1"><path stroke-width="10px" stroke="#599f57" fill="none" d="M2.23, 1.71L-97.1, -56.09"/></g><g transform="matrix(1, 0, 0, 1, 2350.0237, 3376.5174)" opacity="1"><path stroke-width="10px" stroke="#599f57" fill="none" d="M0, 0L0, 693.3"/></g><g transform="matrix(1, 0, 0, 1, 2249.7705, 3318.513)" opacity="1"><path stroke-width="10px" stroke="#599f57" fill="none" d="M0, 0L0, 692.9"/></g><g transform="matrix(1, 0, 0, 1, 2250.3987, 4013.4089)" opacity="1"><path stroke-width="10px" stroke="#599f57" fill="none" d="M0, 0L97.77, 56.87"/></g><g transform="matrix(1, 0, 0, 1, 2448.4082, 4013.758)" opacity="1"><path stroke-width="10px" stroke="#599f57" fill="none" d="M0, 0L-98.08, 56.63"/></g><g transform="matrix(1, 0, 0, 1, 2449.2375, 3317.4562)" opacity="1"><path stroke-width="10px" stroke="#599f57" fill="none" d="M0, 0L-98.86, 57.08"/></g><g transform="matrix(1, 0, 0, 1, 2249.7137, 3315.7593)" opacity="1"><path stroke-width="10px" stroke="#599f57" fill="none" d="M0, 0L99.47, 57.43"/></g><g transform="matrix(1, 0, 0, 1, 2250.7449, 3314.4115)" opacity="1"><path stroke-width="10px" stroke="#599f57" fill="none" d="M0, 0L99.14, -55.86"/></g><g transform="matrix(1, 0, 0, 1, 2447.4918, 3314.9149)" opacity="1"><path stroke-width="10px" stroke="#599f57" fill="none" d="M2.23, 1.71L-97.1, -56.09"/></g><g transform="matrix(1, 0, 0, 1, 2449.9117, 3318.5583)" opacity="1"><path stroke-width="10px" stroke="#599f57" fill="none" d="M0, 0L0, 373.58"/></g><g transform="matrix(1, 0, 0, 1, 2448.24, 3810.9068)" opacity="1"><path stroke-width="10px" stroke="#599f57" fill="none" d="M0, 0L0, 203.02"/></g><g transform="matrix(1, 0, 0, 1, 2250.7811, 3330.8973)" opacity="1"><path stroke-width="10px" stroke="#599f57" fill="none" d="M0, 0L99.47, 57.43"/></g><g transform="matrix(1, 0, 0, 1, 2250.0903, 3359.3614)" opacity="1"><path stroke-width="10px" stroke="#599f57" fill="none" d="M0, 0L99.47, 57.43"/></g><g transform="matrix(1, 0, 0, 1, 2249.9357, 3344.6648)" opacity="1"><path stroke-width="10px" stroke="#599f57" fill="none" d="M0, 0L99.47, 57.43"/></g><g transform="matrix(1, 0, 0, 1, 2250.245, 3374.1289)" opacity="1"><path stroke-width="10px" stroke="#599f57" fill="none" d="M0, 0L99.47, 57.43"/></g><g transform="matrix(1, 0, 0, 1, 2250.7473, 3388.7071)" opacity="1"><path stroke-width="10px" stroke="#599f57" fill="none" d="M0, 0L99.47, 57.43"/></g><g transform="matrix(1, 0, 0, 1, 2250.0565, 3417.1712)" opacity="1"><path stroke-width="10px" stroke="#599f57" fill="none" d="M0, 0L99.47, 57.43"/></g><g transform="matrix(1, 0, 0, 1, 2249.9019, 3402.4745)" opacity="1"><path stroke-width="10px" stroke="#599f57" fill="none" d="M0, 0L99.47, 57.43"/></g><g transform="matrix(1, 0, 0, 1, 2250.2111, 3431.9387)" opacity="1"><path stroke-width="10px" stroke="#599f57" fill="none" d="M0, 0L99.47, 57.43"/></g><g transform="matrix(1, 0, 0, 1, 2250.7995, 3446.9987)" opacity="1"><path stroke-width="10px" stroke="#599f57" fill="none" d="M0, 0L99.47, 57.43"/></g><g transform="matrix(1, 0, 0, 1, 2250.1087, 3475.4629)" opacity="1"><path stroke-width="10px" stroke="#599f57" fill="none" d="M0, 0L99.47, 57.43"/></g><g transform="matrix(1, 0, 0, 1, 2249.9541, 3460.7662)" opacity="1"><path stroke-width="10px" stroke="#599f57" fill="none" d="M0, 0L99.47, 57.43"/></g><g transform="matrix(1, 0, 0, 1, 2250.2634, 3490.2304)" opacity="1"><path stroke-width="10px" stroke="#599f57" fill="none" d="M0, 0L99.47, 57.43"/></g><g transform="matrix(1, 0, 0, 1, 2251.0476, 3505.5286)" opacity="1"><path stroke-width="10px" stroke="#599f57" fill="none" d="M0, 0L99.47, 57.43"/></g><g transform="matrix(1, 0, 0, 1, 2250.3568, 3533.9928)" opacity="1"><path stroke-width="10px" stroke="#599f57" fill="none" d="M0, 0L99.47, 57.43"/></g><g transform="matrix(1, 0, 0, 1, 2250.2022, 3519.2961)" opacity="1"><path stroke-width="10px" stroke="#599f57" fill="none" d="M0, 0L99.47, 57.43"/></g><g transform="matrix(1, 0, 0, 1, 2250.5114, 3548.7602)" opacity="1"><path stroke-width="10px" stroke="#599f57" fill="none" d="M0, 0L99.47, 57.43"/></g><g transform="matrix(1, 0, 0, 1, 2250.9329, 3563.9745)" opacity="1"><path stroke-width="10px" stroke="#599f57" fill="none" d="M0, 0L99.47, 57.43"/></g><g transform="matrix(1, 0, 0, 1, 2250.2421, 3592.4386)" opacity="1"><path stroke-width="10px" stroke="#599f57" fill="none" d="M0, 0L99.47, 57.43"/></g><g transform="matrix(1, 0, 0, 1, 2250.0875, 3577.742)" opacity="1"><path stroke-width="10px" stroke="#599f57" fill="none" d="M0, 0L99.47, 57.43"/></g><g transform="matrix(1, 0, 0, 1, 2250.3967, 3607.2061)" opacity="1"><path stroke-width="10px" stroke="#599f57" fill="none" d="M0, 0L99.47, 57.43"/></g><g transform="matrix(1, 0, 0, 1, 2250.8711, 3622.4573)" opacity="1"><path stroke-width="10px" stroke="#599f57" fill="none" d="M0, 0L99.47, 57.43"/></g><g transform="matrix(1, 0, 0, 1, 2250.1804, 3650.9215)" opacity="1"><path stroke-width="10px" stroke="#599f57" fill="none" d="M0, 0L99.47, 57.43"/></g><g transform="matrix(1, 0, 0, 1, 2250.0257, 3636.2248)" opacity="1"><path stroke-width="10px" stroke="#599f57" fill="none" d="M0, 0L99.47, 57.43"/></g><g transform="matrix(1, 0, 0, 1, 2250.335, 3665.6889)" opacity="1"><path stroke-width="10px" stroke="#599f57" fill="none" d="M0, 0L99.47, 57.43"/></g><g transform="matrix(1, 0, 0, 1, 2250.5551, 3679.7552)" opacity="1"><path stroke-width="10px" stroke="#599f57" fill="none" d="M0, 0L99.47, 57.43"/></g><g transform="matrix(1, 0, 0, 1, 2249.8643, 3708.2193)" opacity="1"><path stroke-width="10px" stroke="#599f57" fill="none" d="M0, 0L99.47, 57.43"/></g><g transform="matrix(1, 0, 0, 1, 2249.7097, 3693.5227)" opacity="1"><path stroke-width="10px" stroke="#599f57" fill="none" d="M0, 0L99.47, 57.43"/></g><g transform="matrix(1, 0, 0, 1, 2250.019, 3722.9868)" opacity="1"><path stroke-width="10px" stroke="#599f57" fill="none" d="M0, 0L99.47, 57.43"/></g><g transform="matrix(1, 0, 0, 1, 2250.4404, 3738.201)" opacity="1"><path stroke-width="10px" stroke="#599f57" fill="none" d="M0, 0L99.47, 57.43"/></g><g transform="matrix(1, 0, 0, 1, 2249.7496, 3766.6652)" opacity="1"><path stroke-width="10px" stroke="#599f57" fill="none" d="M0, 0L99.47, 57.43"/></g><g transform="matrix(1, 0, 0, 1, 2249.595, 3751.9685)" opacity="1"><path stroke-width="10px" stroke="#599f57" fill="none" d="M0, 0L99.47, 57.43"/></g><g transform="matrix(1, 0, 0, 1, 2249.9043, 3781.4327)" opacity="1"><path stroke-width="10px" stroke="#599f57" fill="none" d="M0, 0L99.47, 57.43"/></g><g transform="matrix(1, 0, 0, 1, 2250.8455, 3797.1103)" opacity="1"><path stroke-width="10px" stroke="#599f57" fill="none" d="M0, 0L99.47, 57.43"/></g><g transform="matrix(1, 0, 0, 1, 2250.1548, 3825.5745)" opacity="1"><path stroke-width="10px" stroke="#599f57" fill="none" d="M0, 0L99.47, 57.43"/></g><g transform="matrix(1, 0, 0, 1, 2250.0001, 3810.8778)" opacity="1"><path stroke-width="10px" stroke="#599f57" fill="none" d="M0, 0L99.47, 57.43"/></g><g transform="matrix(1, 0, 0, 1, 2250.3094, 3840.3419)" opacity="1"><path stroke-width="10px" stroke="#599f57" fill="none" d="M0, 0L99.47, 57.43"/></g><g transform="matrix(1, 0, 0, 1, 2251.6057, 3855.6107)" opacity="1"><path stroke-width="10px" stroke="#599f57" fill="none" d="M0, 0L99.47, 57.43"/></g><g transform="matrix(1, 0, 0, 1, 2250.9149, 3884.0749)" opacity="1"><path stroke-width="10px" stroke="#599f57" fill="none" d="M0, 0L99.47, 57.43"/></g><g transform="matrix(1, 0, 0, 1, 2250.7603, 3869.3782)" opacity="1"><path stroke-width="10px" stroke="#599f57" fill="none" d="M0, 0L99.47, 57.43"/></g><g transform="matrix(1, 0, 0, 1, 2251.0695, 3898.8423)" opacity="1"><path stroke-width="10px" stroke="#599f57" fill="none" d="M0, 0L99.47, 57.43"/></g><g transform="matrix(1, 0, 0, 1, 2250.8939, 3913.5822)" opacity="1"><path stroke-width="10px" stroke="#599f57" fill="none" d="M0, 0L99.47, 57.43"/></g><g transform="matrix(1, 0, 0, 1, 2250.2032, 3942.0463)" opacity="1"><path stroke-width="10px" stroke="#599f57" fill="none" d="M0, 0L99.47, 57.43"/></g><g transform="matrix(1, 0, 0, 1, 2250.0486, 3927.3497)" opacity="1"><path stroke-width="10px" stroke="#599f57" fill="none" d="M0, 0L99.47, 57.43"/></g><g transform="matrix(1, 0, 0, 1, 2250.3578, 3956.8138)" opacity="1"><path stroke-width="10px" stroke="#599f57" fill="none" d="M0, 0L99.47, 57.43"/></g><g transform="matrix(1, 0, 0, 1, 2250.7884, 3971.6712)" opacity="1"><path stroke-width="10px" stroke="#599f57" fill="none" d="M0, 0L99.47, 57.43"/></g><g transform="matrix(1, 0, 0, 1, 2250.8255, 3985.5401)" opacity="1"><path stroke-width="10px" stroke="#599f57" fill="none" d="M0, 0L99.47, 57.43"/></g><g transform="matrix(1, 0, 0, 1, 2250.8255, 3999.5401)" opacity="1"><path stroke-width="10px" stroke="#599f57" fill="none" d="M0, 0L99.47, 57.43"/></g></svg>